<svg width="156" height="186" viewBox="0 0 156 186" fill="none" xmlns="http://www.w3.org/2000/svg">
<path d="M104.001 2C101.652 33.3229 95.4604 67.2764 130.334 82.2222C134.459 83.99 149.925 89.6073 153.556 83.5556C159.384 73.8423 131.129 63.6917 126.834 62.2222C108.927 56.0959 93.0745 56.0971 77.5008 68.1111C58.5588 82.7235 45.8817 105.795 31.1119 124.333C20.9553 137.082 11.9347 148.023 11.0008 164.833C10.8861 166.897 8.18532 177.092 10.0008 178" stroke="white" stroke-width="3" stroke-linecap="round"/>
<path d="M2 160C4.09648 167.512 5.89646 175.275 7 183C7.19922 184.395 8.28023 183.788 9 183C14.1399 177.371 17.2194 169.413 21.8889 163.333C29.1559 153.871 35.5556 144.576 47 141" stroke="white" stroke-width="3" stroke-linecap="round"/>
</svg>
