<svg width="613" height="326" viewBox="0 0 613 326" fill="none" xmlns="http://www.w3.org/2000/svg">
<path d="M2 92.0002C90.2652 96.8037 177.69 94.6444 265.667 84.7779C335.724 76.921 405.433 64.8954 475.056 53.9446C513.464 47.9034 552.131 42.2223 589.111 29.7779C593.764 28.2122 619.075 20.0305 608.556 10.0002C604.144 5.7935 595.569 4.09621 589.889 3.22238C573.274 0.666262 555.619 1.8954 538.944 3.11127C507.045 5.43729 467.75 18.0374 457.944 52.1668C446.179 93.1207 448.906 138.066 460.111 178.778C468.962 210.937 474.451 243.407 476.389 276.778C476.928 286.054 477.034 295.011 475.778 304.222C475.157 308.777 474 313.384 474 318" stroke="white" stroke-width="3" stroke-linecap="round"/>
<path d="M457 291C459.546 299.657 462.267 308.187 465 316.778C465.268 317.621 467.827 324.966 469 323.5C470.014 322.233 472.062 321.189 473.278 320.222C478.411 316.139 482.514 311.441 486.611 306.333C504.832 283.62 527.159 268.638 552 254" stroke="white" stroke-width="3" stroke-linecap="round"/>
</svg>
