<svg width="249" height="92" viewBox="0 0 249 92" fill="none" xmlns="http://www.w3.org/2000/svg">
<path d="M247 48.8889C242.755 51.6055 237.609 53.5619 232.667 54.4444C194.208 61.312 154.247 60.9908 117.056 48.8889C102.239 44.0677 90.5528 39.1902 80.8889 26.7778C76.713 21.4142 78.9516 20.4901 84.4444 18C95.6029 12.9415 107.449 10.1991 119.333 7.44444C129.777 5.02373 140.68 2 151.5 2C162.488 2 163.705 19.8169 162.444 27.2222C160.641 37.8199 154.458 49.1979 146.333 56.2222C133.536 67.2866 119.781 70.9334 103.333 73.2222C76.8674 76.9052 51.2043 72.7559 24.8333 71.9444C20.3499 71.8065 16.185 72.2839 12 70.8889" stroke="white" stroke-width="3" stroke-linecap="round"/>
<path d="M57.9277 58C53.8225 58.5747 -1.2359 68.5828 2.14988 74C4.94016 78.4644 17.4403 80.939 22.0388 82.4444C29.6575 84.9387 37.236 87.8024 44.9277 90" stroke="white" stroke-width="3" stroke-linecap="round"/>
</svg>
