<svg width="232" height="138" viewBox="0 0 232 138" fill="none" xmlns="http://www.w3.org/2000/svg">
<path d="M70.2867 50.8124C68.0751 51.6551 66.2837 53.36 63.9868 54.0228C61.2234 54.8201 58.5159 55.8799 55.7332 56.6828C52.9981 57.4719 50.3186 58.2817 47.6611 59.2749C45.4286 60.1093 43.062 60.4483 40.895 61.4593C38.5013 62.576 35.8371 63.0783 33.4155 64.1744C29.6865 65.8624 27.735 68.2526 27.6247 72.3132C27.5069 76.6522 30.2412 80.9522 31.4154 85.022C32.9998 90.5129 35.7421 95.6504 38.1833 100.756C39.6795 103.884 41.0517 106.835 42.0227 110.201C42.4519 111.688 43.1182 113.032 43.5452 114.512C44.0153 116.141 45.4728 117.138 46.3656 118.495C48.1267 121.172 50.0262 124.446 53.0788 125.78C58.1511 127.997 64.3672 126.118 69.3599 124.61C75.4678 122.766 81.3872 120.548 87.2774 118.172C90.3564 116.93 93.65 115.844 96.4441 114.01C100.047 111.646 103.633 109.148 103.419 104.292C103.291 101.38 103.092 98.8675 102.279 96.0487C101.054 91.8027 99.3456 87.8526 97.2582 83.9579C92.2141 74.5466 89.3939 64.1239 84.3838 54.7293C83.5758 53.2143 83.326 51.2994 82.3413 49.9029C81.537 48.7623 80.2389 48.6459 78.923 48.4598C77.1354 48.2069 75.8075 48.1054 74.1038 48.5969C72.7833 48.9779 71.7212 49.8415 70.3954 50.224" stroke="#1A1820" stroke-width="3" stroke-linecap="round"/>
<path d="M57.728 55.55C57.0389 53.162 60.112 52.8238 61.6184 52.4623C63.9636 51.8996 66.2858 51.4096 68.5961 50.743" stroke="#1A1820" stroke-width="3" stroke-linecap="round"/>
<path d="M29.9629 65.5104C27.7809 66.14 26.2051 68.0933 24.18 68.8502C22.0373 69.651 19.4684 71.9896 18.1893 73.9365C16.3489 76.7377 17.018 80.4954 17.8793 83.4803C18.6088 86.0087 19.3383 88.537 20.0678 91.0653C20.7164 93.3132 21.6194 95.4773 22.2579 97.6905C23.3875 101.605 25.2042 105.345 26.4172 109.21C28.6682 116.381 32.0045 122.649 35.7366 129.174C36.3596 130.263 36.9569 131.335 37.6911 132.355C38.2038 133.067 38.8449 133.094 39.3504 133.547C39.7454 133.902 41.3434 134.242 41.897 134.329C43.5064 134.582 45.0459 134.331 46.6502 133.963C50.5855 133.061 54.4571 131.974 58.3477 130.851C59.5128 130.515 60.5226 130.237 61.5219 129.517C62.6115 128.733 64.2306 128.726 65.466 128.225C67.9343 127.222 70.4638 126.241 73.0353 125.499C76.0366 124.633 78.7721 122.836 81.6658 121.678C83.8498 120.804 86.0435 120.006 88.2267 119.104C89.4622 118.594 91.1595 118.097 92.2573 117.307C93.314 116.546 94.2846 115.362 95.4448 114.84C96.9679 114.155 98.1743 112.481 99.4836 111.462" stroke="#1A1820" stroke-width="3" stroke-linecap="round"/>
<path d="M62.3979 76.7019C62.9066 76.3143 63.9268 76.2903 64.2864 75.7252L65.2576 76.6965C65.7513 76.6965 66.2407 76.9713 66.7198 77.139C67.2952 77.3404 67.9437 77.5951 68.5489 77.6624C68.9862 77.711 69.5934 77.9307 69.8439 78.3153C70.7611 79.724 71.182 81.4477 71.182 83.1069C71.182 84.0587 71.0849 84.9947 71.0849 85.9452C71.0849 86.7798 71.2833 87.4644 71.5705 88.2438C72.0111 89.4399 72.8052 90.4568 73.5614 91.4652C74.1026 92.1868 74.5775 92.9531 75.1208 93.6722C75.564 94.2588 75.4331 95.0672 75.601 95.7388C75.7024 96.1445 75.7436 96.793 75.4337 97.1148C74.2232 98.372 72.4881 98.7461 70.9715 99.4728C69.2915 100.278 67.2536 100.568 65.4195 100.698C64.967 100.73 64.5487 100.781 64.2864 100.374C63.9049 99.7826 63.83 99.0391 63.558 98.4044C63.1532 97.4598 63.0238 96.0877 63.0238 95.0751C63.0238 93.6682 62.7574 92.2609 62.6407 90.8609C62.4842 88.9823 62.6149 86.7786 61.8368 85.0494C61.4945 84.2888 60.8029 83.7239 60.6875 82.8587C60.6402 82.5038 60.4016 82.2243 60.4016 81.8658V80.7381C60.4016 79.8626 60.6739 78.6465 61.2217 77.9376C61.5662 77.4917 61.9477 77.0449 62.3979 76.7019Z" fill="url(#paint0_linear_12_3342)"/>
<path d="M61.6749 75.0223C58.5953 76.1957 55.6756 78.3627 56.7142 81.9622C57.0704 83.1968 57.2408 84.6324 58.7071 85.008C59.7049 85.2637 61.0097 85.8618 61.8476 86.4539C62.9348 87.2221 61.714 91.2748 61.548 92.1727C61.0519 94.8576 61.2963 96.9485 61.4612 99.5942C61.548 100.988 61.9222 102.72 62.2488 104.04C62.6162 105.526 62.553 106.782 64.2647 106.522C68.0267 105.952 71.7586 104.422 75.4231 103.364C76.2848 103.116 77.9854 102.478 78.6008 101.829C79.4028 100.982 76.9581 98.2486 76.5476 97.6087C75.0775 95.3172 73.587 93.0559 71.8456 90.9655C70.9041 89.8354 70.0355 88.6797 69.1735 87.4967C68.8055 86.9917 69.323 86.6515 69.6069 86.1028C70.9982 83.4139 70.5023 78.6758 68.4217 76.4179C67.4007 75.3099 66.3622 74.9375 64.9252 74.7034C63.9371 74.5425 60.9702 75.2256 61.932 74.9481" stroke="#1A1820" stroke-width="3" stroke-linecap="round"/>
<path d="M25.9979 67.2118C25.7183 66.2429 25.0549 65.1316 24.4648 64.3118C23.8782 63.497 23.8842 62.3849 23.3793 61.5149C22.7046 60.3525 22.7791 58.8198 22.0766 57.6974C21.2867 56.4352 20.7589 54.7838 20.1254 53.4017C18.7168 50.3288 17.9273 46.7193 16.0714 43.91C15.268 42.6939 15.0442 40.8325 14.6446 39.4475C14.1051 37.578 13.4093 35.701 13.2207 33.7618C12.9288 30.7609 12.553 28.5875 13.8838 25.7098C14.4372 24.5133 14.8703 22.8399 15.951 21.9877C17.2219 20.9854 18.4565 19.7712 19.6714 18.686C22.3559 16.2882 24.6317 14.4077 28.055 13.4199C30.8488 12.6138 33.7613 12.0923 36.6807 12.4785C48.5882 14.0534 51.7485 28.6065 55.6693 37.7457C55.9657 38.4367 56.3574 39.248 56.7674 39.8891C57.3926 40.8668 57.6548 41.1758 56.6741 41.711C54.8162 42.7249 52.1315 42.9889 50.6492 44.6409C49.8456 45.5365 49.3377 45.5953 49.475 47.0067C49.7753 50.0936 56.3929 46.884 57.8847 45.4777C59.7346 43.7338 58.1651 41.0849 56.0351 40.9979" stroke="#1A1820" stroke-width="3" stroke-linecap="round"/>
<path d="M48.9203 47.2285C49.588 45.6217 48.8199 43.0195 48.3619 41.4323C47.8482 39.6516 47.1585 37.9926 46.5922 36.2641C46.1171 34.8138 44.7212 33.8718 44.1177 32.5681C43.5278 31.2939 41.8882 29.8183 40.8427 28.8864C37.9514 26.3095 34.4596 25.2879 30.5371 25.4539C28.5747 25.5369 26.2779 25.7062 24.9014 27.2657C24.0692 28.2084 23.1266 28.6968 23.0341 30.1255C22.9325 31.6948 22.9388 32.8999 23.2149 34.4524C23.8929 38.2641 25.0417 42.0507 26.4503 45.6656C27.3135 47.8809 28.0225 50.0954 28.6836 52.3867C29.2046 54.1924 30.2208 55.7032 30.9533 57.4106C31.702 59.1558 32.5182 61.7414 33.9636 62.9636" stroke="#1A1820" stroke-width="3" stroke-linecap="round"/>
<path d="M197.52 79.2494C199.295 77.6067 199.953 75.8146 202.277 75.0229C204.382 74.3059 206.462 74.08 208.533 74.9705C212.491 76.6721 215.916 79.911 214.189 84.4907C212.86 88.0143 206.514 91.0093 203.112 88.6535C199.063 85.85 199.079 83.9226 198.337 79.2812" stroke="#1A1820" stroke-width="3" stroke-linecap="round"/>
<path d="M186.065 68.5712C199.965 64.1692 191.98 85.0777 188.643 90.5695C187.214 92.9221 183.609 89.635 183.683 87.7162C183.763 85.6675 183.813 83.2185 184.906 81.4194C186.11 79.4383 187.096 71.1933 186.458 68.9958" stroke="#1A1820" stroke-width="3" stroke-linecap="round"/>
<path d="M192.805 68.7018C197.704 64.6499 204.961 63.2298 211.044 64.9507C212.822 65.4539 214.72 65.5975 216.064 67.0498C217.352 68.4428 218.641 69.8358 219.93 71.2288C222.151 73.6296 223.504 76.1979 224.081 79.4583C225.533 87.6607 219.923 95.0821 213.099 99.2173C211.116 100.419 209.512 100.739 207.172 100.691C205.674 100.66 204.146 101.109 202.63 101.167C200.963 101.23 199.083 100.98 197.517 100.389C194.84 99.3798 192.171 97.7755 189.968 95.9514C189.281 95.3826 187.171 93.4781 187.523 92.5429" stroke="#1A1820" stroke-width="3" stroke-linecap="round"/>
<path d="M182.48 85.9092C181.9 86.2474 180.122 85.8314 179.466 85.7816C178.111 85.6786 176.762 85.5424 175.408 85.445C173.378 85.2989 171.465 84.4502 169.475 84.3729C166.987 84.2762 164.796 82.6693 162.249 82.472C159.78 82.2808 157.391 82.2406 156.39 84.8951C155.564 87.0875 155.291 90.5072 155.747 92.7804C155.901 93.5471 155.911 94.5135 155.881 95.2891C155.839 96.3646 157.244 96.2552 158.022 96.5083C159.561 97.0094 163.783 98.9682 165.176 97.5438C167.283 95.3896 166.932 92.3627 167.794 89.7353C168.195 88.5128 168.155 86.9836 168.516 85.7872C168.888 84.5493 169.259 83.5318 167.778 84.2017" stroke="#1A1820" stroke-width="3" stroke-linecap="round"/>
<path d="M158.566 82.5179C157.306 82.8844 155.834 81.845 154.605 81.6066C153.666 81.4247 152.749 81.3451 151.797 81.3081C150.404 81.2539 149.024 80.7164 147.657 80.6633C146.68 80.6253 145.665 80.4264 144.718 80.7489C143.397 81.1991 143.363 82.6314 142.987 83.8899C142.193 86.5461 141.521 89.9457 142.499 92.6438C143.34 94.9608 147.036 95.3113 148.999 94.8319C150.166 94.5472 150.897 92.9578 151.131 91.9484C151.583 89.9991 152.338 88.1117 152.838 86.1768C153.087 85.215 153.81 82.8275 152.473 82.3231C150.857 81.7138 148.983 81.3321 147.27 81.1426C146.365 81.0425 145.613 81.2805 144.718 81.0329C143.897 80.8058 143.022 80.5883 142.17 80.5552C140.875 80.5048 138.882 80.547 137.949 79.5391C136.161 77.6057 137.144 75.0467 137.926 72.8165C138.804 70.316 139.636 67.5604 142.543 67.1685C144.769 66.8684 146.83 65.9319 149.174 66.2586C150.886 66.4974 152.619 67.1394 154.323 67.2056C157.963 67.3471 161.288 68.3764 164.811 69.086C166.432 69.4125 167.988 70.0089 169.653 70.0737C171.202 70.1338 172.953 70.3454 174.456 70.7337C175.885 71.103 177.509 71.1083 178.993 71.1941C179.828 71.2424 181.775 71.3235 182.455 71.6968C183.228 72.1217 184.262 72.0674 184.607 71.265C184.827 70.753 185.998 68.4843 185.941 69.9494C185.84 72.5693 185.392 75.0359 184.885 77.6503C184.585 79.197 184.383 80.8047 184.322 82.383C184.286 83.3125 184.568 84.7071 183.826 85.3932" stroke="#1A1820" stroke-width="3" stroke-linecap="round"/>
<path d="M78.4531 82.5976C78.6119 81.8177 78.6188 81.6756 79.4082 81.4392C80.3161 81.1673 81.5396 81.6114 82.3555 81.1032C83.1985 80.578 83.6453 78.828 83.7955 77.9212C83.9274 77.125 83.8428 76.8393 84.6312 76.4196" stroke="url(#paint1_linear_12_3342)" stroke-width="3" stroke-linecap="round"/>
<path d="M67.3449 70.2503C67.7548 68.8934 68.2303 67.5339 68.4769 66.1294C68.5417 65.7602 68.5116 65.3557 68.5996 64.9988C68.9331 63.648 67.3368 62.5728 67.4677 61.1458" stroke="url(#paint2_linear_12_3342)" stroke-width="3" stroke-linecap="round"/>
<path d="M84.0072 94.6927C85.0599 94.3248 85.3453 94.6537 86.328 95.0013C87.2898 95.3416 87.8537 94.8888 88.5595 94.4705" stroke="url(#paint3_linear_12_3342)" stroke-width="3" stroke-linecap="round"/>
<path d="M79.8417 102.107C80.3364 103.012 81.5159 103.093 82.1901 103.697C82.7319 104.182 83.1782 104.709 84.0688 104.709" stroke="url(#paint4_linear_12_3342)" stroke-width="3" stroke-linecap="round"/>
<path d="M54.5405 101.413C54.2734 101.956 54.083 102.527 53.8413 103.075C53.5431 103.751 52.7668 104.147 52.2718 104.665C52.0269 104.921 51.8521 105.156 51.8627 105.517C51.8653 105.606 52.0387 105.821 51.9594 105.821C50.9748 105.821 50.5516 105.74 49.9883 106.616" stroke="url(#paint5_linear_12_3342)" stroke-width="3" stroke-linecap="round"/>
<path d="M53.6731 88.222C53.6731 88.8897 53.8457 89.4336 53.0201 89.2565C52.1503 89.0701 51.2445 89.2409 50.4079 88.8575C49.888 88.6193 49.6459 88.8609 49.3631 89.3157C49.2572 89.4859 48.5707 91.3532 48.5504 91.3551C48.2619 91.3818 47.6377 90.9301 47.3894 90.8157C46.6821 90.4898 45.9063 90.2354 45.1255 90.2171C44.3294 90.1985 43.9026 90.3326 43.6453 91.1186C43.5403 91.4394 43.5896 92.2101 43.3261 92.4487C43.2948 92.477 41.8071 91.134 41.6572 91.0152" stroke="url(#paint6_linear_12_3342)" stroke-width="3" stroke-linecap="round"/>
<path d="M48.0725 80.6907C47.2793 80.0639 45.9587 80.0389 45.0451 79.5978C44.1056 79.144 42.7172 79.4621 41.6431 79.3494C41.1702 79.2997 40.2474 79.3671 40.269 78.8029C40.2967 78.0808 40.8088 77.9011 40.4013 77.1139" stroke="url(#paint7_linear_12_3342)" stroke-width="3" stroke-linecap="round"/>
<defs>
<linearGradient id="paint0_linear_12_3342" x1="70.1289" y1="88.222" x2="62.6437" y2="88.222" gradientUnits="userSpaceOnUse">
<stop stop-color="#FA1A7C"/>
<stop offset="1" stop-color="#FF4444"/>
</linearGradient>
<linearGradient id="paint1_linear_12_3342" x1="82.3877" y1="79.5086" x2="79.3601" y2="79.5086" gradientUnits="userSpaceOnUse">
<stop stop-color="#FA1A7C"/>
<stop offset="1" stop-color="#FF4444"/>
</linearGradient>
<linearGradient id="paint2_linear_12_3342" x1="68.1732" y1="65.698" x2="67.5358" y2="65.698" gradientUnits="userSpaceOnUse">
<stop stop-color="#FA1A7C"/>
<stop offset="1" stop-color="#FF4444"/>
</linearGradient>
<linearGradient id="paint3_linear_12_3342" x1="86.9064" y1="94.7956" x2="84.6755" y2="94.7956" gradientUnits="userSpaceOnUse">
<stop stop-color="#FA1A7C"/>
<stop offset="1" stop-color="#FF4444"/>
</linearGradient>
<linearGradient id="paint4_linear_12_3342" x1="82.5338" y1="103.408" x2="80.4622" y2="103.408" gradientUnits="userSpaceOnUse">
<stop stop-color="#FA1A7C"/>
<stop offset="1" stop-color="#FF4444"/>
</linearGradient>
<linearGradient id="paint5_linear_12_3342" x1="52.8875" y1="104.014" x2="50.6565" y2="104.014" gradientUnits="userSpaceOnUse">
<stop stop-color="#FA1A7C"/>
<stop offset="1" stop-color="#FF4444"/>
</linearGradient>
<linearGradient id="paint6_linear_12_3342" x1="49.3193" y1="90.3356" x2="43.4233" y2="90.3356" gradientUnits="userSpaceOnUse">
<stop stop-color="#FA1A7C"/>
<stop offset="1" stop-color="#FF4444"/>
</linearGradient>
<linearGradient id="paint7_linear_12_3342" x1="45.2386" y1="78.9023" x2="41.4142" y2="78.9023" gradientUnits="userSpaceOnUse">
<stop stop-color="#FA1A7C"/>
<stop offset="1" stop-color="#FF4444"/>
</linearGradient>
</defs>
</svg>
