<svg width="254" height="48" viewBox="0 0 254 48" fill="none" xmlns="http://www.w3.org/2000/svg">
<g clip-path="url(#clip0_12_3215)">
<path fill-rule="evenodd" clip-rule="evenodd" d="M239.411 20.7465V2.37256H253.132V46.9315H240.04V44.2627C237.81 46.5788 234.683 47.9879 230.658 47.9879C221.634 47.9879 217.186 41.1157 217.186 32.6384C217.186 24.161 221.549 17.2892 230.658 17.2892C234.327 17.2892 237.295 18.4026 239.411 20.7465ZM229.978 32.6384C229.978 35.7643 231.534 38.2989 234.694 38.2989C237.816 38.2989 239.411 35.7643 239.411 32.6384C239.411 29.5128 237.83 26.9789 234.694 26.9789C231.505 26.9789 229.978 29.5128 229.978 32.6384ZM112.735 22.9517L96.3762 46.9316H78.6121L105.918 6.90442H126.931V26.24L140.121 6.90442H161.119V46.9316H146.924V22.9731L130.58 46.9316H112.735V22.9517ZM178.169 18.5697H164.447V46.9318H178.169V18.5697ZM214.689 28.5934C214.527 22.2762 209.367 17.2023 203.01 17.2023C199.606 17.2023 196.55 18.6662 194.413 20.9884V18.5696H181.488V46.9317H195.209V31.4808C195.209 29.8864 196.502 28.5934 198.096 28.5934C199.691 28.5934 200.984 29.8864 200.984 31.4808V46.9317H214.705V28.5934H214.689Z" fill="white"/>
<path fill-rule="evenodd" clip-rule="evenodd" d="M171.304 16.2992L179.454 8.14948L171.305 0L163.155 8.14971L171.304 16.2992ZM63.7613 6.90424V6.89691H41.3289V18.569H41.3435V31.9325H55.5244V18.569H61.9982C66.5941 18.569 70.3199 21.6171 70.3199 26.8914C70.3199 32.6163 66.5941 35.2596 61.9982 35.2596H41.3289V46.9315H63.7613V46.8776C75.0708 46.8776 84.7298 39.7905 84.7298 26.8914C84.7298 13.8921 75.0708 6.90424 63.7613 6.90424ZM16.8138 6.90423L0.786255 30.4631L-0.000244141 31.6202V41.3102H21.7012V30.4631H15.532L25.0286 16.5039V46.9314H38.0658V6.90423H16.8138Z" fill="url(#paint0_linear_12_3215)"/>
</g>
<defs>
<linearGradient id="paint0_linear_12_3215" x1="114.288" y1="23.4657" x2="26.3435" y2="23.4657" gradientUnits="userSpaceOnUse">
<stop stop-color="#FA1A7C"/>
<stop offset="1" stop-color="#FF4444"/>
</linearGradient>
<clipPath id="clip0_12_3215">
<rect width="253.236" height="48" fill="white"/>
</clipPath>
</defs>
</svg>
